[Header]
FileType HTR
DataType HTRS
FileVersion 1
NumSegments 64
NumFrames 3
DataFrameRate 24
EulerRotationOrder ZYX
CalibrationUnits mm
RotationUnits Degrees
GlobalAxisofGravity Y
BoneLengthAxis Y
ScaleFactor 1.0
[SegmentNames&Hierarchy]
Hips	GLOBAL
Spine	Hips
Spine1	Spine
Spine2	Spine1
Neck	Spine2
Head	Neck
LeftEye	Head
RightEye	Head
LeftShoulder	Spine2
LeftArm	LeftShoulder
LeftForeArm	LeftArm
LeftHand	LeftForeArm
LeftHandThumb1	LeftHand
LeftHandThumb2	LeftHandThumb1
LeftHandThumb3	LeftHandThumb2
LeftHandThumb4	LeftHandThumb3
LeftHandIndex1	LeftHand
LeftHandIndex2	LeftHandIndex1
LeftHandIndex3	LeftHandIndex2
LeftHandIndex4	LeftHandIndex3
LeftHandMiddle1	LeftHand
LeftHandMiddle2	LeftHandMiddle1
LeftHandMiddle3	LeftHandMiddle2
LeftHandMiddle4	LeftHandMiddle3
LeftHandRing1	LeftHand
LeftHandRing2	LeftHandRing1
LeftHandRing3	LeftHandRing2
LeftHandRing4	LeftHandRing3
LeftHandPinky1	LeftHand
LeftHandPinky2	LeftHandPinky1
LeftHandPinky3	LeftHandPinky2
LeftHandPinky4	LeftHandPinky3
RightShoulder	Spine2
RightArm	RightShoulder
RightForeArm	RightArm
RightHand	RightForeArm
RightHandPinky1	RightHand
RightHandPinky2	RightHandPinky1
RightHandPinky3	RightHandPinky2
RightHandPinky4	RightHandPinky3
RightHandRing1	RightHand
RightHandRing2	RightHandRing1
RightHandRing3	RightHandRing2
RightHandRing4	RightHandRing3
RightHandMiddle1	RightHand
RightHandMiddle2	RightHandMiddle1
RightHandMiddle3	RightHandMiddle2
RightHandMiddle4	RightHandMiddle3
RightHandIndex1	RightHand
RightHandIndex2	RightHandIndex1
RightHandIndex3	RightHandIndex2
RightHandIndex4	RightHandIndex3
RightHandThumb1	RightHand
RightHandThumb2	RightHandThumb1
RightHandThumb3	RightHandThumb2
RightHandThumb4	RightHandThumb3
LeftUpLeg	Hips
LeftLeg	LeftUpLeg
LeftFoot	LeftLeg
LeftToeBase	LeftFoot
RightUpLeg	Hips
RightLeg	RightUpLeg
RightFoot	RightLeg
RightToeBase	RightFoot
[BasePosition]
Hips	0	0	0	0	0	0	1
Spine	0	0	0	0	0	0	1
Spine1	0	0	0	0	0	0	1
Spine2	0	0	0	0	0	0	1
Neck	0	0	0	0	0	0	1
Head	0	0	0	0	0	0	1
LeftEye	0	0	0	0	0	0	1
RightEye	0	0	0	0	0	0	1
LeftShoulder	0	0	0	0	0	0	1
LeftArm	0	0	0	0	0	0	1
LeftForeArm	0	0	0	0	0	0	1
LeftHand	0	0	0	0	0	0	1
LeftHandThumb1	0	0	0	0	0	0	1
LeftHandThumb2	0	0	0	0	0	0	1
LeftHandThumb3	0	0	0	0	0	0	1
LeftHandThumb4	0	0	0	0	0	0	1
LeftHandIndex1	0	0	0	0	0	0	1
LeftHandIndex2	0	0	0	0	0	0	1
LeftHandIndex3	0	0	0	0	0	0	1
LeftHandIndex4	0	0	0	0	0	0	1
LeftHandMiddle1	0	0	0	0	0	0	1
LeftHandMiddle2	0	0	0	0	0	0	1
LeftHandMiddle3	0	0	0	0	0	0	1
LeftHandMiddle4	0	0	0	0	0	0	1
LeftHandRing1	0	0	0	0	0	0	1
LeftHandRing2	0	0	0	0	0	0	1
LeftHandRing3	0	0	0	0	0	0	1
LeftHandRing4	0	0	0	0	0	0	1
LeftHandPinky1	0	0	0	0	0	0	1
LeftHandPinky2	0	0	0	0	0	0	1
LeftHandPinky3	0	0	0	0	0	0	1
LeftHandPinky4	0	0	0	0	0	0	1
RightShoulder	0	0	0	0	0	0	1
RightArm	0	0	0	0	0	0	1
RightForeArm	0	0	0	0	0	0	1
RightHand	0	0	0	0	0	0	1
RightHandPinky1	0	0	0	0	0	0	1
RightHandPinky2	0	0	0	0	0	0	1
RightHandPinky3	0	0	0	0	0	0	1
RightHandPinky4	0	0	0	0	0	0	1
RightHandRing1	0	0	0	0	0	0	1
RightHandRing2	0	0	0	0	0	0	1
RightHandRing3	0	0	0	0	0	0	1
RightHandRing4	0	0	0	0	0	0	1
RightHandMiddle1	0	0	0	0	0	0	1
RightHandMiddle2	0	0	0	0	0	0	1
RightHandMiddle3	0	0	0	0	0	0	1
RightHandMiddle4	0	0	0	0	0	0	1
RightHandIndex1	0	0	0	0	0	0	1
RightHandIndex2	0	0	0	0	0	0	1
RightHandIndex3	0	0	0	0	0	0	1
RightHandIndex4	0	0	0	0	0	0	1
RightHandThumb1	0	0	0	0	0	0	1
RightHandThumb2	0	0	0	0	0	0	1
RightHandThumb3	0	0	0	0	0	0	1
RightHandThumb4	0	0	0	0	0	0	1
LeftUpLeg	0	0	0	0	0	0	1
LeftLeg	0	0	0	0	0	0	1
LeftFoot	0	0	0	0	0	0	1
LeftToeBase	0	0	0	0	0	0	1
RightUpLeg	0	0	0	0	0	0	1
RightLeg	0	0	0	0	0	0	1
RightFoot	0	0	0	0	0	0	1
RightToeBase	0	0	0	0	0	0	1
[Hips]
11	-1521.499756	984.5513916	56.39556122	-12.67543888	-73.58363342	23.19171906	1.0
12	-1682.2948	1001.409058	46.00538635	-8.175526619	-77.98757935	18.77485085	1.0
13	-1846.056885	1007.571716	36.50956726	-4.416786671	-81.2822876	15.24784374	1.0
[Spine]
11	0	101.8159943	1.315000057	5.520575047	2.409038782	-4.132127285	1.0
12	0	101.8159943	1.315000057	4.449784756	-0.8086711168	-3.269666672	1.0
13	0	101.8159943	1.315000057	3.793355227	-3.427471638	-3.207496643	1.0
[Spine1]
11	0	100.8349991	-10.00800037	2.093658209	0.8932545185	-1.053697824	1.0
12	0	100.8349991	-10.00800037	1.719779015	-0.2368197739	-0.6812468171	1.0
13	0	100.8349991	-10.00800037	1.350607514	-1.150702357	-0.5310669541	1.0
[Spine2]
11	0	91	-13.73399925	2.087429762	0.9001305699	-1.062057853	1.0
12	0	91	-13.73399925	1.719479322	-0.2312910557	-0.6812269688	1.0
13	0	91	-13.73399925	1.349683881	-1.150406003	-0.5233433843	1.0
[Neck]
11	0	166.7169952	-25.16200066	-0.2772741616	10.81363773	-2.880413055	1.0
12	0	166.7169952	-25.16200066	0.3887042403	12.55125904	-3.284741163	1.0
13	0	166.7169952	-25.16200066	0.8602623343	13.94017315	-3.337234974	1.0
[Head]
11	0	96.17900085	16.84999847	-23.01355743	43.85230255	-23.7573967	1.0
12	0	96.17900085	16.84999847	-26.05266953	50.12085342	-27.45708656	1.0
13	0	96.17900085	16.84999847	-29.22155571	55.12662888	-29.65247726	1.0
[LeftEye]
11	30.6760006	64.09500122	92.83599854	0	0	0	1.0
12	30.6760006	64.09500122	92.83599854	0	0	0	1.0
13	30.6760006	64.09500122	92.83599854	0	0	0	1.0
[RightEye]
11	-30.6760006	64.09500122	92.83499908	0	0	0	1.0
12	-30.6760006	64.09500122	92.83499908	0	0	0	1.0
13	-30.6760006	64.09500122	92.83499908	0	0	0	1.0
[LeftShoulder]
11	45.70400238	109.4599991	-26.28000069	3.508555651	-2.311294556	-9.853470802	1.0
12	45.70400238	109.4599991	-26.28000069	3.446197271	-2.458665371	-8.888396263	1.0
13	45.70400238	109.4599991	-26.28000069	3.316627026	-1.127240539	-9.347387314	1.0
[LeftArm]
11	105.923996	-5.24600029	-22.32099915	19.35697174	-5.232842922	-46.14669418	1.0
12	105.923996	-5.24600029	-22.32099915	13.26585579	-7.548864365	-44.39797974	1.0
13	105.923996	-5.24600029	-22.32099915	8.603872299	-5.995610714	-40.75211716	1.0
[LeftForeArm]
11	278.414978	-0.0009999999311	0	1.34169095e-05	-68.89328003	-0.0002317457111	1.0
12	278.414978	-0.0009999999311	0	2.739877345e-06	-81.46337891	-0.0002293733851	1.0
13	278.414978	-0.0009999999311	0	4.577636719e-05	-96.32822418	-0.0002136230469	1.0
[LeftHand]
11	283.2879944	0	0	27.11586189	7.920163631	-14.70624924	1.0
12	283.2879944	0	0	33.39006424	3.553174734	-13.69206619	1.0
13	283.2879944	0	0	39.55584717	-1.461271882	-6.192761898	1.0
[LeftHandThumb1]
11	24.6609993	-15.75	26.8239994	-1.06156528	-2.84131217	-5.385859489	1.0
12	24.6609993	-15.75	26.8239994	-2.397099018	-5.130788803	-6.354357719	1.0
13	24.6609993	-15.75	26.8239994	-2.43682456	-5.972205639	-6.981534958	1.0
[LeftHandThumb2]
11	32.29800034	-18.64699936	18.64699936	4.205234051	22.35145187	11.73908234	1.0
12	32.29800034	-18.64699936	18.64699936	3.65942502	23.92248917	13.11117935	1.0
13	32.29800034	-18.64699936	18.64699936	2.969732046	24.72551537	13.49948978	1.0
[LeftHandThumb3]
11	26.52600098	-15.31499958	15.31499958	2.930918217	12.73142529	1.601046562	1.0
12	26.52600098	-15.31499958	15.31499958	2.560257196	11.75882721	1.397716403	1.0
13	26.52600098	-15.31499958	15.31499958	2.211602211	10.63785553	0.9456483722	1.0
[LeftHandThumb4]
11	19.54599953	-11.28499985	11.28499985	0	0	0	1.0
12	19.54599953	-11.28499985	11.28499985	0	0	0	1.0
13	19.54599953	-11.28499985	11.28499985	0	0	0	1.0
[LeftHandIndex1]
11	91.09299469	-5.170999527	22.60099792	-1.195939779	-1.172340751	-17.00211906	1.0
12	91.09299469	-5.170999527	22.60099792	-1.099353313	-3.685224056	-17.4132061	1.0
13	91.09299469	-5.170999527	22.60099792	-1.017958879	-4.253595352	-15.90762138	1.0
[LeftHandIndex2]
11	36.76399994	0	0	-0.3586392701	2.199552059	-14.36120129	1.0
12	36.76399994	0	0	-0.3230284154	2.110053539	-13.41429138	1.0
13	36.76399994	0	0	-0.2983709872	2.045404911	-12.73413277	1.0
[LeftHandIndex3]
11	28.83100128	0	0	-0.1084581017	0.7983745933	-10.09814739	1.0
12	28.83100128	0	0	-0.09253650159	0.7044907212	-9.151381493	1.0
13	28.83100128	0	0	-0.08215463161	0.6375308633	-8.477658272	1.0
[LeftHandIndex4]
11	23.92700005	0	0	0	0	0	1.0
12	23.92700005	0	0	0	0	0	1.0
13	23.92700005	0	0	0	0	0	1.0
[LeftHandMiddle1]
11	95.33399963	0	0	-4.341144085	3.930296659	-37.89819336	1.0
12	95.33399963	0	0	-4.751311779	2.272732019	-40.99118805	1.0
13	95.33399963	0	0	-4.474193573	2.159286261	-39.02910995	1.0
[LeftHandMiddle2]
11	36.98199844	0	0	-1.201526999	3.56430912	-30.02194595	1.0
12	36.98199844	0	0	-1.137536883	3.484750271	-29.01262093	1.0
13	36.98199844	0	0	-1.062775016	3.387999296	-27.80404472	1.0
[LeftHandMiddle3]
11	29.50900078	0	0	-0.2815074623	1.953112841	-17.15008354	1.0
12	29.50900078	0	0	-0.2509146333	1.857610345	-16.14182854	1.0
13	29.50900078	0	0	-0.2167121172	1.74333775	-14.94281578	1.0
[LeftHandMiddle4]
11	28.3390007	0	0	0	0	0	1.0
12	28.3390007	0	0	0	0	0	1.0
13	28.3390007	0	0	0	0	0	1.0
[LeftHandRing1]
11	91.04499817	-0.4390000105	-18.65100098	-5.555651665	10.38801479	-45.92247391	1.0
12	91.04499817	-0.4390000105	-18.65100098	-5.60392952	9.966529846	-46.41949463	1.0
13	91.04499817	-0.4390000105	-18.65100098	-5.318808556	9.930916786	-44.40449905	1.0
[LeftHandRing2]
11	31.54000092	0	0	-0.9896457791	3.772421837	-36.65052032	1.0
12	31.54000092	0	0	-0.9547709823	3.721085787	-36.02309799	1.0
13	31.54000092	0	0	-0.8484324217	3.556595087	-34.04351425	1.0
[LeftHandRing3]
11	29.37700081	0	0	-0.3927609026	2.802512884	-28.87877083	1.0
12	29.37700081	0	0	-0.368353337	2.744857311	-28.24910355	1.0
13	29.37700081	0	0	-0.295991987	2.562483788	-26.2760582	1.0
[LeftHandRing4]
11	26.47500038	0	0	0	0	0	1.0
12	26.47500038	0	0	0	0	0	1.0
13	26.47500038	0	0	0	0	0	1.0
[LeftHandPinky1]
11	80.77799988	-4.887000084	-38.06099701	-7.476795197	10.11788559	-58.50951004	1.0
12	80.77799988	-4.887000084	-38.06099701	-7.658844471	7.907193661	-60.72016144	1.0
13	80.77799988	-4.887000084	-38.06099701	-7.384809971	8.224863052	-58.26042557	1.0
[LeftHandPinky2]
11	36	0	0	-2.744199276	4.401457787	-55.59901428	1.0
12	36	0	0	-2.741696358	4.399944782	-55.56963348	1.0
13	36	0	0	-2.484785318	4.234600067	-52.50408554	1.0
[LeftHandPinky3]
11	21.14200211	0	0	-0.8585398197	3.408643246	-27.08028984	1.0
12	21.14200211	0	0	-0.8557325602	3.404150724	-27.02738571	1.0
13	21.14200211	0	0	-0.7027592063	3.143983364	-24.01147652	1.0
[LeftHandPinky4]
11	19.75699997	0	0	0	0	0	1.0
12	19.75699997	0	0	0	0	0	1.0
13	19.75699997	0	0	0	0	0	1.0
[RightShoulder]
11	-45.70000076	109.4620056	-26.28000069	4.851964951	18.15373611	8.857197762	1.0
12	-45.70000076	109.4620056	-26.28000069	4.787536621	19.54658127	7.340821266	1.0
13	-45.70000076	109.4620056	-26.28000069	5.144649506	21.56219482	7.411242008	1.0
[RightArm]
11	-105.9280014	-5.248000145	-22.32099915	31.19279671	-34.97680664	30.55813789	1.0
12	-105.9280014	-5.248000145	-22.32099915	37.75277328	-38.92140961	20.42044258	1.0
13	-105.9280014	-5.248000145	-22.32099915	40.30838776	-39.15540314	14.0088377	1.0
[RightForeArm]
11	-278.414978	0	0	3.119912071e-05	71.6844101	2.473862151e-05	1.0
12	-278.414978	0	0	-5.854558367e-06	73.19699097	-3.716208539e-06	1.0
13	-278.414978	0	0	1.402160706e-05	67.32945251	1.944369615e-05	1.0
[RightHand]
11	-283.2879944	0	0.0009999999311	-25.1617775	38.51044464	-30.03289413	1.0
12	-283.2879944	0	0.0009999999311	-22.49502182	39.07185745	-20.83603287	1.0
13	-283.2879944	0	0.0009999999311	-9.452108383	31.94013023	-11.59198475	1.0
[RightHandPinky1]
11	-80.76699829	-4.885000229	-38.06000137	-0.8706071377	-11.69501019	6.387521744	1.0
12	-80.76699829	-4.885000229	-38.06000137	-0.2317806929	-11.70064163	1.299580455	1.0
13	-80.76699829	-4.885000229	-38.06000137	0.0163305793	-12.24127769	0.2826810181	1.0
[RightHandPinky2]
11	-36	0	0.0009999999311	-0.7570101619	-2.370392561	26.83703423	1.0
12	-36	0	0.0009999999311	-0.7284843922	-2.320319891	26.26029587	1.0
13	-36	0	0.0009999999311	-0.6416473985	-2.160230637	24.43754005	1.0
[RightHandPinky3]
11	-21.14200211	0	0	-0.1626646519	2.132120609	0.4422775805	1.0
12	-21.14200211	0	0	-0.1577820927	2.187146902	-0.108150959	1.0
13	-21.14200211	0	0	-0.1456487328	2.365003824	-1.884842992	1.0
[RightHandPinky4]
11	-19.75699997	0	0	0	0	0	1.0
12	-19.75699997	0	0	0	0	0	1.0
13	-19.75699997	0	0	0	0	0	1.0
[RightHandRing1]
11	-91.03599548	-0.4390000105	-18.65100098	-0.9246006608	-8.180783272	10.91007423	1.0
12	-91.03599548	-0.4390000105	-18.65100098	-0.5235550404	-8.06022644	7.202644825	1.0
13	-91.03599548	-0.4390000105	-18.65100098	-0.4996649325	-8.218306541	6.899736404	1.0
[RightHandRing2]
11	-31.54000092	0	0	-0.2406370193	-2.218011856	19.16083336	1.0
12	-31.54000092	0	0	-0.2320569307	-2.189629316	18.86169243	1.0
13	-31.54000092	0	0	-0.2064965963	-2.101731539	17.93816185	1.0
[RightHandRing3]
11	-29.37700081	0	0	-0.0259056706	0.8673556447	9.92340374	1.0
12	-29.37700081	0	0	-0.02378640883	0.8966701031	9.628302574	1.0
13	-29.37700081	0	0	-0.01818087325	0.9877616167	8.712002754	1.0
[RightHandRing4]
11	-26.47500038	0	0	0	0	0	1.0
12	-26.47500038	0	0	0	0	0	1.0
13	-26.47500038	0	0	0	0	0	1.0
[RightHandMiddle1]
11	-95.32500458	0	0	0.2701611519	-1.611659169	0.1519340724	1.0
12	-95.32500458	0	0	0.6920470595	-0.7738862634	-4.350928783	1.0
13	-95.32500458	0	0	0.7291417718	-0.69487077	-4.76849556	1.0
[RightHandMiddle2]
11	-36.98199844	0	0	-0.5776320696	-2.630102396	18.90786743	1.0
12	-36.98199844	0	0	-0.5889561176	-2.651081085	19.14321327	1.0
13	-36.98199844	0	0	-0.5881303549	-2.649592876	19.12646866	1.0
[RightHandMiddle3]
11	-29.50900078	0	0	-0.107054472	-1.089279056	9.796849251	1.0
12	-29.50900078	0	0	-0.1119291186	-1.114375234	10.05377674	1.0
13	-29.50900078	0	0	-0.1118072867	-1.113736749	10.04720211	1.0
[RightHandMiddle4]
11	-28.3390007	0	0.0009999999311	0	0	0	1.0
12	-28.3390007	0	0.0009999999311	0	0	0	1.0
13	-28.3390007	0	0.0009999999311	0	0	0	1.0
[RightHandIndex1]
11	-91.08300018	-5.167999744	22.60099792	1.221490979	2.514055967	-11.48857594	1.0
12	-91.08300018	-5.167999744	22.60099792	1.490884185	2.68694663	-15.25110245	1.0
13	-91.08300018	-5.167999744	22.60099792	1.397383809	1.986708522	-14.47455978	1.0
[RightHandIndex2]
11	-36.76399994	0	0	-0.2890622914	-2.020254135	12.47233868	1.0
12	-36.76399994	0	0	-0.2969999015	-2.041617155	12.69636917	1.0
13	-36.76399994	0	0	-0.2854895592	-2.01050663	12.37013245	1.0
[RightHandIndex3]
11	-28.83100128	0	0	-0.1989495754	0.01429405622	12.0919857	1.0
12	-28.83100128	0	0	-0.2036552578	-0.007447797805	12.31327438	1.0
13	-28.83100128	0	0	-0.196136564	0.02746848576	11.95818996	1.0
[RightHandIndex4]
11	-23.92700005	0	0	0	0	0	1.0
12	-23.92700005	0	0	0	0	0	1.0
13	-23.92700005	0	0	0	0	0	1.0
[RightHandThumb1]
11	-24.64799881	-15.72700024	26.82600021	3.302067757	-1.686023355	2.545852423	1.0
12	-24.64799881	-15.72700024	26.82600021	3.48388648	-2.002535105	2.344806194	1.0
13	-24.64799881	-15.72700024	26.82600021	3.699408054	-2.416582584	2.063755751	1.0
[RightHandThumb2]
11	-32.29800034	-18.64699936	18.64699936	4.157246113	-14.19003582	-20.6848793	1.0
12	-32.29800034	-18.64699936	18.64699936	4.741923332	-15.72277164	-24.13122749	1.0
13	-32.29800034	-18.64699936	18.64699936	4.902358532	-16.44777298	-24.10725403	1.0
[RightHandThumb3]
11	-26.52600098	-15.31399918	15.31399918	0.3778859675	-0.486567378	3.213201523	1.0
12	-26.52600098	-15.31399918	15.31399918	0.5577477217	1.746155143	4.345646858	1.0
13	-26.52600098	-15.31399918	15.31399918	0.6371347308	3.173545599	5.181238174	1.0
[RightHandThumb4]
11	-19.54599953	-11.28499985	11.28499985	0	0	0	1.0
12	-19.54599953	-11.28499985	11.28499985	0	0	0	1.0
13	-19.54599953	-11.28499985	11.28499985	0	0	0	1.0
[LeftUpLeg]
11	82.07800293	-67.51699829	-15.99599934	-0.9920091033	2.05073452	-5.831212044	1.0
12	82.07800293	-67.51699829	-15.99599934	11.67703152	6.690620899	-0.1933912486	1.0
13	82.07800293	-67.51699829	-15.99599934	16.34337616	7.503410339	2.043306112	1.0
[LeftLeg]
11	0	-443.7049866	2.845999956	21.91945839	-7.14557457	4.041875362	1.0
12	0	-443.7049866	2.845999956	10.22961807	-8.280596733	5.648244858	1.0
13	0	-443.7049866	2.845999956	13.78588009	-6.144971371	7.731381893	1.0
[LeftFoot]
11	0	-444.2789917	-29.8219986	-7.545603275	0.4726605415	-8.418905258	1.0
12	0	-444.2789917	-29.8219986	10.00111866	2.02082181	-10.06480026	1.0
13	0	-444.2789917	-29.8219986	19.77091789	2.766478062	-11.45435715	1.0
[LeftToeBase]
11	0	-87.28699493	107.1060028	-20.89422798	0.8899936676	2.990354061	1.0
12	0	-87.28699493	107.1060028	-17.00597572	0.1240172535	0.4777236581	1.0
13	0	-87.28699493	107.1060028	-8.892255783	8.929665455e-06	4.995160907e-06	1.0
[RightUpLeg]
11	-82.07800293	-67.51699829	-15.99599934	-49.89987946	-3.684659958	-5.106890202	1.0
12	-82.07800293	-67.51699829	-15.99599934	-54.81843567	-0.3508670032	-3.639507771	1.0
13	-82.07800293	-67.51699829	-15.99599934	-53.12267303	1.078616142	-2.087150097	1.0
[RightLeg]
11	0	-443.7049866	2.861999989	94.07080078	1.829370975	-9.884583473	1.0
12	0	-443.7049866	2.861999989	75.25092316	-0.7537564635	-9.98831749	1.0
13	0	-443.7049866	2.861999989	52.35869598	-2.826470375	-7.709036827	1.0
[RightFoot]
11	0	-444.2770081	-29.83799934	-4.892827511	-5.004395962	6.580579281	1.0
12	0	-444.2770081	-29.83799934	-8.776426315	-2.998220205	6.706434727	1.0
13	0	-444.2770081	-29.83799934	-10.42463684	-0.7978230119	7.731121063	1.0
[RightToeBase]
11	0	-87.28699493	107.1060028	-0.9156253338	4.511548923e-06	1.852023729e-06	1.0
12	0	-87.28699493	107.1060028	0.850635469	-1.910670107e-05	5.048442745e-06	1.0
13	0	-87.28699493	107.1060028	1.495447278	-1.59527026e-05	-2.256648202e-07	1.0
[EndOfFile]
